<svg width="369" height="98" viewBox="0 0 369 98" fill="none" xmlns="http://www.w3.org/2000/svg">
<g clip-path="url(#clip0_1_45)">
<path d="M2.48907 15.4881H15.4006C15.4006 13.4265 15.4161 11.2979 15.4471 9.10221V1H72.157V9.10994C72.157 11.3674 72.157 13.4858 72.157 15.4958H85.5261C86.1385 15.4971 86.7271 15.7329 87.1702 16.1545C87.6132 16.576 87.8769 17.1512 87.9068 17.7611C88.1259 21.3452 88.022 24.9417 87.5966 28.5073C87.2303 31.8697 86.2166 35.13 84.611 38.1094C83.0249 40.9337 80.6556 43.2422 77.7869 44.7581C74.4398 46.4366 70.7542 47.3354 67.0079 47.3867C64.4721 51.5847 61.0911 53.5716 57.1362 57.182C52.3516 60.8234 48.7534 63.568 51.5529 71.9717H55.7326C57.3397 71.9758 58.8797 72.614 60.0161 73.7469C61.1525 74.8799 61.7927 76.4152 61.7968 78.0174V80.4527H62.3939C63.1774 80.4492 63.9539 80.5996 64.6791 80.8955C65.4043 81.1913 66.0639 81.6267 66.6202 82.1768C67.1768 82.729 67.6183 83.3856 67.9191 84.1088C68.2199 84.8319 68.3741 85.6073 68.3727 86.3902V90.4336C68.3727 90.7965 68.2281 91.1446 67.9707 91.4012C67.7133 91.6578 67.3642 91.802 67.0002 91.802H20.6117C20.2477 91.802 19.8986 91.6578 19.6412 91.4012C19.3838 91.1446 19.2392 90.7965 19.2392 90.4336V86.3902C19.2374 85.6073 19.3914 84.8318 19.6922 84.1085C19.993 83.3853 20.4347 82.7287 20.9917 82.1768C21.5444 81.6224 22.2017 81.1826 22.9258 80.8827C23.6498 80.5828 24.4262 80.4288 25.2102 80.4295H25.8074V78.0174C25.8074 77.2251 25.965 76.4406 26.2711 75.7094C26.5773 74.9782 27.0259 74.3148 27.5909 73.7576C28.724 72.6269 30.2606 71.9902 31.8638 71.9871H36.5631C39.0601 64.055 35.7876 61.4883 31.2666 57.9397C27.1941 55.1789 23.7619 51.5806 21.2011 47.3867C17.3355 47.3744 13.5268 46.4582 10.0809 44.7118C7.22431 43.1982 4.87186 40.8879 3.31106 38.063C1.73674 35.0923 0.747031 31.8488 0.395305 28.5073C-0.0131423 24.9973 -0.111747 21.4583 0.100627 17.9312V17.8693C0.100626 17.556 0.162661 17.2457 0.283176 16.9563C0.40369 16.6669 0.580315 16.404 0.802924 16.1828C1.02553 15.9616 1.28975 15.7864 1.58042 15.6672C1.8711 15.5479 2.18251 15.4871 2.49682 15.4881H2.48907ZM71.8934 24.1934C71.7239 28.864 71.2055 33.5156 70.3424 38.1094C71.7119 37.8526 73.0248 37.3552 74.2198 36.6405C75.4188 35.902 76.4048 34.8657 77.0812 33.6331C77.8499 32.1866 78.3565 30.6163 78.5779 28.9944C78.8187 27.3946 78.9483 25.7801 78.9656 24.1624H71.8934V24.1934ZM15.6022 24.1934H9.30542C9.31919 25.8149 9.43574 27.4339 9.65438 29.0408C9.85045 30.6551 10.3226 32.2241 11.0502 33.6794C11.6913 34.9054 12.6464 35.9404 13.8186 36.6791C14.9455 37.3655 16.1843 37.8495 17.4788 38.1094C16.3944 33.5438 15.7658 28.8824 15.6022 24.1934Z" fill="#F39D00"/>
<path d="M15.5714 17.8693H2.48925C2.13254 25.0438 2.59007 31.9245 5.42827 36.8956C8.08813 41.6193 12.9503 44.7427 21.4184 44.9823C20.355 43.6724 19.4493 42.2427 18.7198 40.7225C13.6327 40.0421 10.6859 37.947 8.99542 34.7927C7.30491 31.6384 6.93268 27.5332 6.93268 22.7554C6.93268 22.5032 7.03317 22.2613 7.21205 22.083C7.39093 21.9046 7.63354 21.8044 7.88651 21.8044H15.5714V17.8693ZM72.0021 21.8122H80.3927C80.6443 21.8122 80.8857 21.9113 81.0644 22.0879C81.2431 22.2646 81.3445 22.5045 81.3465 22.7554C81.3465 27.5487 80.9122 31.6771 79.1442 34.8159C77.3761 37.9547 74.3673 40.0344 69.2957 40.7225C68.5335 42.2638 67.5714 43.6986 66.4343 44.9901C74.9644 44.7659 79.8421 41.6425 82.5407 36.911C85.3867 31.909 85.8675 25.0515 85.5185 17.877H72.0021V21.8122Z" fill="#F9C809"/>
<path d="M61.797 80.445H62.3941C63.1781 80.4425 63.955 80.5941 64.6802 80.8913C65.4054 81.1884 66.0647 81.6253 66.6204 82.1767C67.177 82.7289 67.6185 83.3856 67.9193 84.1087C68.2201 84.8319 68.3743 85.6073 68.3729 86.3902V94.6084C68.3729 94.9713 68.2283 95.3194 67.9709 95.576C67.7135 95.8326 67.3644 95.9768 67.0004 95.9768H20.6119C20.2479 95.9768 19.8988 95.8326 19.6414 95.576C19.3839 95.3194 19.2393 94.9713 19.2393 94.6084V86.4134C19.2345 85.6266 19.387 84.8466 19.6879 84.1192C19.9888 83.3918 20.4321 82.7314 20.9919 82.1767C21.5446 81.6224 22.2019 81.1826 22.926 80.8827C23.65 80.5828 24.4264 80.4288 25.2104 80.4295H61.797V80.445Z" fill="#222222"/>
<path d="M54.779 84.4961H27.6997C27.2671 84.4959 26.8387 84.5812 26.4394 84.747C26.0401 84.9129 25.6777 85.1561 25.3733 85.4625C24.7554 86.0775 24.4069 86.9114 24.4039 87.7818V91.8638H63.2393V87.7818C63.2343 86.9103 62.8829 86.0762 62.2622 85.4625C61.6442 84.8472 60.8092 84.4975 59.9358 84.4883L54.779 84.4961Z" fill="#EAD79E"/>
<path d="M39.3239 72.8994H43.9767V59.1458C26.7846 53.0536 25.1639 32.0868 21.0617 3.04102H17.4713V23.7372C17.8357 31.6152 19.1385 37.4445 20.9376 41.9054C22.4143 45.6079 24.6275 48.974 27.4438 51.8012C29.08 53.4008 30.818 54.8935 32.6472 56.2698C38.0832 60.5296 42.0226 63.6221 39.3239 72.8994Z" fill="#F8B705"/>
<path d="M43.9767 72.8994H48.8544C45.8456 63.0732 50.1572 59.7565 55.8336 55.4657C62.0761 50.7188 70.1798 44.5494 70.1798 24.2707V3.04102H21.0617C23.7138 21.8122 25.3268 37.1894 30.7628 47.3867C32.6149 50.6798 35.0689 53.5983 37.9979 55.9915C39.319 56.9585 40.7412 57.7802 42.2397 58.4422C42.7987 58.6675 43.3711 58.8586 43.9535 59.0143V59.1303H44.0078V72.8994H43.9767Z" fill="#FAC809"/>
<path d="M45.1787 16.5628L47.35 21.874L53.0807 22.307C53.3789 22.3299 53.6631 22.4427 53.8954 22.6305C54.1278 22.8182 54.2973 23.0721 54.3815 23.3582C54.4656 23.6443 54.4605 23.9492 54.3666 24.2324C54.2728 24.5155 54.0948 24.7635 53.8562 24.9433L49.5213 28.6078L50.8861 34.1588C50.9311 34.3466 50.9385 34.5414 50.9079 34.7321C50.8773 34.9228 50.8092 35.1056 50.7077 35.27C50.6061 35.4345 50.473 35.5773 50.316 35.6904C50.159 35.8036 49.9812 35.8847 49.7927 35.9292C49.5967 35.9773 49.3927 35.9843 49.1938 35.9497C48.9949 35.9151 48.8054 35.8396 48.6373 35.7282L43.8139 32.6976L38.9362 35.705C38.7713 35.8069 38.5879 35.8754 38.3964 35.9064C38.205 35.9375 38.0093 35.9306 37.8205 35.886C37.6317 35.8415 37.4536 35.7602 37.2964 35.6469C37.1392 35.5336 37.006 35.3904 36.9045 35.2257C36.8006 35.0618 36.7313 34.8787 36.7006 34.6873C36.67 34.4959 36.6786 34.3003 36.7261 34.1124L38.0832 28.5615L33.694 24.8505C33.473 24.6605 33.3132 24.4096 33.2347 24.1294C33.1562 23.8491 33.1625 23.552 33.2528 23.2753C33.3431 22.9986 33.5134 22.7547 33.7423 22.5742C33.9712 22.3937 34.2484 22.2846 34.5393 22.2606L40.27 21.874L42.4491 16.586C42.5622 16.3183 42.7521 16.0898 42.9949 15.9292C43.2376 15.7686 43.5225 15.6829 43.8139 15.6829C44.1053 15.6829 44.3901 15.7686 44.6329 15.9292C44.8757 16.0898 45.0655 16.3183 45.1787 16.586V16.5628Z" fill="#F39D00"/>
<path d="M43.8139 17.1271L46.3342 23.2502L52.9722 23.7527L47.8928 28.0434L49.467 34.4757L43.8139 30.989L38.1607 34.4757L39.7349 28.0434L34.6556 23.7527L41.2859 23.2502L43.8139 17.1271Z" fill="white"/>
<path fill-rule="evenodd" clip-rule="evenodd" d="M59.4163 37.8156L59.362 37.8929C58.7393 37.4651 57.9751 37.293 57.2284 37.4125C56.4817 37.532 55.8099 37.9339 55.3528 38.5346L55.2753 38.4727C55.4981 38.1705 55.6558 37.8256 55.7385 37.4598C55.8212 37.0939 55.8272 36.715 55.7561 36.3467C55.7069 35.9756 55.5826 35.6184 55.3906 35.2968C55.1986 34.9752 54.943 34.6958 54.6394 34.4757C55.3605 34.6512 56.0905 34.788 56.8262 34.8855C57.1989 34.8351 57.5574 34.7097 57.88 34.517C58.2026 34.3243 58.4825 34.0683 58.7028 33.7645L58.7804 33.8186C58.3542 34.4397 58.1826 35.1999 58.3008 35.9432C58.4191 36.6865 58.8182 37.3564 59.4163 37.8156ZM65.3486 27.9043L65.2943 27.9816C64.6732 27.551 63.9091 27.3766 63.1619 27.4948C62.4147 27.6129 61.7422 28.0145 61.2852 28.6156L61.2076 28.5614C61.6368 27.9406 61.8093 27.1787 61.6894 26.4343C61.5696 25.6899 61.1665 25.0202 60.564 24.5644L60.6183 24.4871C61.2422 24.9154 62.0076 25.0877 62.7556 24.9682C63.5036 24.8487 64.1767 24.4467 64.6352 23.8454L64.705 23.9073C64.2758 24.5281 64.1032 25.29 64.2231 26.0344C64.343 26.7789 64.7461 27.4486 65.3486 27.9043ZM65.3951 17.4209L65.2943 17.56C64.1554 16.7774 62.7579 16.4621 61.3919 16.6795C60.026 16.8968 58.7964 17.6302 57.9584 18.7274L57.8188 18.6269C58.2214 18.0761 58.5074 17.4493 58.6594 16.7848C58.8114 16.1202 58.8261 15.4318 58.7028 14.7614C58.6135 14.0807 58.3851 13.4256 58.0316 12.8365C57.6781 12.2474 57.2072 11.7369 56.6479 11.3365L56.7487 11.1973C57.8876 11.9799 59.2851 12.2953 60.6511 12.0779C62.017 11.8605 63.2466 11.1271 64.0846 10.0299L64.2242 10.1304C63.8216 10.6813 63.5356 11.3081 63.3836 11.9726C63.2316 12.6372 63.2168 13.3256 63.3401 13.996C63.4304 14.6764 63.6592 15.3312 64.0126 15.9202C64.366 16.5092 64.8365 17.0199 65.3951 17.4209Z" fill="white"/>
</g>
<path d="M113.364 39L100.728 1.2H106.29L117.9 36.084H115.092L127.134 1.2H132.102L143.874 36.084H141.174L152.946 1.2H158.076L145.44 39H139.77L128.754 6.654H130.212L119.142 39H113.364ZM165.222 39V1.2H170.622V39H165.222ZM182.479 39V1.2H186.907L211.909 32.25H209.587V1.2H214.987V39H210.559L185.557 7.95H187.879V39H182.479ZM226.841 39V1.2H231.269L256.271 32.25H253.949V1.2H259.349V39H254.921L229.919 7.95H232.241V39H226.841ZM271.203 39V1.2H276.603V39H271.203ZM288.46 39V1.2H292.888L317.89 32.25H315.568V1.2H320.968V39H316.54L291.538 7.95H293.86V39H288.46ZM349.886 39.432C346.97 39.432 344.288 38.964 341.84 38.028C339.392 37.056 337.268 35.706 335.468 33.978C333.668 32.214 332.264 30.162 331.256 27.822C330.248 25.482 329.744 22.908 329.744 20.1C329.744 17.292 330.248 14.718 331.256 12.378C332.264 10.038 333.668 8.004 335.468 6.276C337.304 4.512 339.446 3.162 341.894 2.226C344.342 1.254 347.042 0.768 349.994 0.768C352.982 0.768 355.718 1.254 358.202 2.226C360.686 3.198 362.792 4.656 364.52 6.6L361.172 9.948C359.624 8.436 357.932 7.338 356.096 6.654C354.296 5.934 352.334 5.574 350.21 5.574C348.05 5.574 346.034 5.934 344.162 6.654C342.326 7.374 340.724 8.382 339.356 9.678C338.024 10.974 336.98 12.522 336.224 14.322C335.504 16.086 335.144 18.012 335.144 20.1C335.144 22.152 335.504 24.078 336.224 25.878C336.98 27.642 338.024 29.19 339.356 30.522C340.724 31.818 342.326 32.826 344.162 33.546C345.998 34.266 347.996 34.626 350.156 34.626C352.172 34.626 354.098 34.32 355.934 33.708C357.806 33.06 359.534 31.998 361.118 30.522L364.196 34.626C362.324 36.21 360.128 37.416 357.608 38.244C355.124 39.036 352.55 39.432 349.886 39.432ZM359.012 33.924V19.884H364.196V34.626L359.012 33.924Z" fill="white"/>
<path d="M134.726 49.8H150.302V96H134.726V49.8ZM120.338 96H104.762V49.8H120.338V96ZM135.782 78.972H119.282V66.168H135.782V78.972ZM152.791 96L172.987 49.8H188.299L208.495 96H192.391L177.475 57.192H183.547L168.631 96H152.791ZM164.803 87.948L168.763 76.728H190.015L193.975 87.948H164.803ZM210.981 96V49.8H235.665C242.045 49.8 246.753 50.944 249.789 53.232C252.825 55.476 254.343 58.358 254.343 61.878C254.343 64.21 253.683 66.3 252.363 68.148C251.087 69.952 249.217 71.382 246.753 72.438C244.289 73.494 241.253 74.022 237.645 74.022L238.965 70.458C242.573 70.458 245.675 70.964 248.271 71.976C250.911 72.988 252.935 74.462 254.343 76.398C255.795 78.29 256.521 80.578 256.521 83.262C256.521 87.266 254.849 90.39 251.505 92.634C248.205 94.878 243.365 96 236.985 96H210.981ZM226.293 85.11H235.665C237.381 85.11 238.657 84.802 239.493 84.186C240.373 83.57 240.813 82.668 240.813 81.48C240.813 80.292 240.373 79.39 239.493 78.774C238.657 78.158 237.381 77.85 235.665 77.85H225.237V67.554H233.553C235.313 67.554 236.589 67.268 237.381 66.696C238.217 66.08 238.635 65.222 238.635 64.122C238.635 62.978 238.217 62.12 237.381 61.548C236.589 60.976 235.313 60.69 233.553 60.69H226.293V85.11ZM262.028 96V49.8H277.604V96H262.028ZM295.134 96V61.878H281.604V49.8H324.24V61.878H310.71V96H295.134ZM345.511 97.056C341.639 97.056 337.899 96.616 334.291 95.736C330.683 94.856 327.713 93.712 325.381 92.304L330.397 80.952C332.597 82.228 335.039 83.262 337.723 84.054C340.451 84.802 343.091 85.176 345.643 85.176C347.139 85.176 348.305 85.088 349.141 84.912C350.021 84.692 350.659 84.406 351.055 84.054C351.451 83.658 351.649 83.196 351.649 82.668C351.649 81.832 351.187 81.172 350.263 80.688C349.339 80.204 348.107 79.808 346.567 79.5C345.071 79.148 343.421 78.796 341.617 78.444C339.813 78.048 337.987 77.542 336.139 76.926C334.335 76.31 332.663 75.496 331.123 74.484C329.627 73.472 328.417 72.152 327.493 70.524C326.569 68.852 326.107 66.784 326.107 64.32C326.107 61.46 326.899 58.864 328.483 56.532C330.111 54.156 332.509 52.264 335.677 50.856C338.889 49.448 342.871 48.744 347.623 48.744C350.747 48.744 353.827 49.074 356.863 49.734C359.899 50.394 362.627 51.406 365.047 52.77L360.361 64.056C358.073 62.912 355.851 62.054 353.695 61.482C351.583 60.91 349.515 60.624 347.491 60.624C345.995 60.624 344.807 60.756 343.927 61.02C343.047 61.284 342.409 61.636 342.013 62.076C341.661 62.516 341.485 63 341.485 63.528C341.485 64.32 341.947 64.958 342.871 65.442C343.795 65.882 345.005 66.256 346.501 66.564C348.041 66.872 349.713 67.202 351.517 67.554C353.365 67.906 355.191 68.39 356.995 69.006C358.799 69.622 360.449 70.436 361.945 71.448C363.485 72.46 364.717 73.78 365.641 75.408C366.565 77.036 367.027 79.06 367.027 81.48C367.027 84.296 366.213 86.892 364.585 89.268C363.001 91.6 360.625 93.492 357.457 94.944C354.289 96.352 350.307 97.056 345.511 97.056Z" fill="white"/>
<defs>
<clipPath id="clip0_1_45">
<rect width="88" height="95" fill="white" transform="translate(0 1)"/>
</clipPath>
</defs>
</svg>
