<svg width="88" height="95" viewBox="0 0 88 95" fill="none" xmlns="http://www.w3.org/2000/svg">
<path d="M2.48907 14.4881H15.4006C15.4006 12.4265 15.4161 10.2979 15.4471 8.10221V0H72.157V8.10994C72.157 10.3674 72.157 12.4858 72.157 14.4958H85.5261C86.1385 14.4971 86.7271 14.7329 87.1702 15.1545C87.6132 15.576 87.8769 16.1512 87.9068 16.7611C88.1259 20.3452 88.022 23.9417 87.5966 27.5073C87.2303 30.8697 86.2166 34.13 84.611 37.1094C83.0249 39.9337 80.6556 42.2422 77.7869 43.7581C74.4398 45.4366 70.7542 46.3354 67.0079 46.3867C64.4721 50.5847 61.0911 52.5716 57.1362 56.182C52.3516 59.8234 48.7534 62.568 51.5529 70.9717H55.7326C57.3397 70.9758 58.8797 71.614 60.0161 72.7469C61.1525 73.8799 61.7927 75.4152 61.7968 77.0174V79.4527H62.3939C63.1774 79.4492 63.9539 79.5996 64.6791 79.8955C65.4043 80.1913 66.0639 80.6267 66.6202 81.1768C67.1768 81.729 67.6183 82.3856 67.9191 83.1088C68.2199 83.8319 68.3741 84.6073 68.3727 85.3902V89.4336C68.3727 89.7965 68.2281 90.1446 67.9707 90.4012C67.7133 90.6578 67.3642 90.802 67.0002 90.802H20.6117C20.2477 90.802 19.8986 90.6578 19.6412 90.4012C19.3838 90.1446 19.2392 89.7965 19.2392 89.4336V85.3902C19.2374 84.6073 19.3914 83.8317 19.6922 83.1085C19.993 82.3853 20.4347 81.7287 20.9917 81.1768C21.5444 80.6224 22.2017 80.1826 22.9258 79.8827C23.6498 79.5828 24.4262 79.4288 25.2102 79.4295H25.8074V77.0174C25.8074 76.2251 25.965 75.4406 26.2711 74.7094C26.5773 73.9782 27.0259 73.3148 27.5909 72.7576C28.724 71.6269 30.2606 70.9902 31.8638 70.9871H36.5631C39.0601 63.055 35.7876 60.4883 31.2666 56.9397C27.1941 54.1789 23.7619 50.5806 21.2011 46.3867C17.3355 46.3744 13.5268 45.4582 10.0809 43.7118C7.22431 42.1982 4.87186 39.8879 3.31106 37.063C1.73674 34.0923 0.747031 30.8488 0.395305 27.5073C-0.0131423 23.9973 -0.111747 20.4583 0.100627 16.9312V16.8693C0.100626 16.556 0.162661 16.2457 0.283176 15.9563C0.40369 15.6669 0.580315 15.404 0.802924 15.1828C1.02553 14.9616 1.28975 14.7864 1.58042 14.6672C1.8711 14.5479 2.18251 14.4871 2.49682 14.4881H2.48907ZM71.8934 23.1934C71.7239 27.864 71.2055 32.5156 70.3424 37.1094C71.7119 36.8526 73.0248 36.3552 74.2198 35.6405C75.4188 34.902 76.4048 33.8657 77.0812 32.6331C77.8499 31.1866 78.3565 29.6163 78.5779 27.9944C78.8187 26.3946 78.9483 24.7801 78.9656 23.1624H71.8934V23.1934ZM15.6022 23.1934H9.30542C9.31919 24.8149 9.43574 26.4339 9.65438 28.0408C9.85045 29.6551 10.3226 31.2241 11.0502 32.6794C11.6913 33.9054 12.6464 34.9404 13.8186 35.6791C14.9455 36.3655 16.1843 36.8495 17.4788 37.1094C16.3944 32.5438 15.7658 27.8824 15.6022 23.1934Z" fill="#F39D00"/>
<path d="M15.5714 16.8693H2.48925C2.13254 24.0438 2.59007 30.9245 5.42827 35.8956C8.08813 40.6193 12.9503 43.7427 21.4184 43.9823C20.355 42.6724 19.4493 41.2427 18.7198 39.7225C13.6327 39.0422 10.6859 36.947 8.99542 33.7927C7.30491 30.6384 6.93268 26.5332 6.93268 21.7554C6.93268 21.5032 7.03317 21.2613 7.21205 21.083C7.39093 20.9046 7.63354 20.8044 7.88651 20.8044H15.5714V16.8693ZM72.0021 20.8122H80.3927C80.6443 20.8122 80.8857 20.9113 81.0644 21.088C81.2431 21.2646 81.3445 21.5045 81.3465 21.7554C81.3465 26.5487 80.9122 30.6771 79.1442 33.8159C77.3761 36.9548 74.3673 39.0344 69.2957 39.7225C68.5335 41.2638 67.5714 42.6986 66.4343 43.9901C74.9644 43.7659 79.8421 40.6425 82.5407 35.9111C85.3867 30.909 85.8675 24.0515 85.5185 16.877H72.0021V20.8122Z" fill="#F9C809"/>
<path d="M61.797 79.445H62.3941C63.1781 79.4425 63.955 79.5941 64.6802 79.8913C65.4054 80.1885 66.0647 80.6253 66.6204 81.1768C67.177 81.729 67.6185 82.3856 67.9193 83.1088C68.2201 83.8319 68.3743 84.6073 68.3729 85.3902V93.6084C68.3729 93.9713 68.2283 94.3194 67.9709 94.576C67.7135 94.8326 67.3644 94.9768 67.0004 94.9768H20.6119C20.2479 94.9768 19.8988 94.8326 19.6414 94.576C19.3839 94.3194 19.2393 93.9713 19.2393 93.6084V85.4134C19.2345 84.6266 19.387 83.8466 19.6879 83.1192C19.9888 82.3918 20.4321 81.7314 20.9919 81.1768C21.5446 80.6224 22.2019 80.1826 22.926 79.8827C23.65 79.5828 24.4264 79.4288 25.2104 79.4295H61.797V79.445Z" fill="#222222"/>
<path d="M54.779 83.4961H27.6997C27.2671 83.4959 26.8387 83.5812 26.4394 83.7471C26.0401 83.9129 25.6777 84.1561 25.3733 84.4625C24.7554 85.0775 24.4069 85.9114 24.4039 86.7818V90.8638H63.2393V86.7818C63.2343 85.9103 62.8829 85.0762 62.2622 84.4625C61.6442 83.8472 60.8092 83.4975 59.9358 83.4884L54.779 83.4961Z" fill="#EAD79E"/>
<path d="M39.3239 71.8994H43.9767V58.1458C26.7846 52.0536 25.1639 31.0868 21.0617 2.04102H17.4713V22.7372C17.8357 30.6152 19.1385 36.4445 20.9376 40.9054C22.4143 44.6079 24.6275 47.974 27.4438 50.8012C29.08 52.4008 30.818 53.8935 32.6472 55.2698C38.0832 59.5296 42.0226 62.6221 39.3239 71.8994Z" fill="#F8B705"/>
<path d="M43.9767 71.8994H48.8544C45.8456 62.0732 50.1572 58.7565 55.8336 54.4657C62.0761 49.7188 70.1798 43.5494 70.1798 23.2707V2.04102H21.0617C23.7138 20.8122 25.3268 36.1894 30.7628 46.3867C32.6149 49.6798 35.0689 52.5983 37.9979 54.9915C39.319 55.9585 40.7412 56.7802 42.2397 57.4422C42.7987 57.6675 43.3711 57.8586 43.9535 58.0143V58.1303H44.0078V71.8994H43.9767Z" fill="#FAC809"/>
<path d="M45.1787 15.5627L47.35 20.874L53.0807 21.307C53.3789 21.3299 53.6631 21.4427 53.8954 21.6305C54.1278 21.8182 54.2973 22.072 54.3815 22.3582C54.4656 22.6443 54.4605 22.9492 54.3666 23.2324C54.2728 23.5155 54.0948 23.7634 53.8562 23.9433L49.5213 27.6078L50.8861 33.1588C50.9311 33.3466 50.9385 33.5414 50.9079 33.7321C50.8773 33.9228 50.8092 34.1056 50.7077 34.27C50.6061 34.4345 50.473 34.5773 50.316 34.6904C50.159 34.8035 49.9812 34.8847 49.7927 34.9292C49.5967 34.9773 49.3927 34.9842 49.1938 34.9496C48.9949 34.915 48.8054 34.8396 48.6373 34.7282L43.8139 31.6976L38.9362 34.705C38.7713 34.8069 38.5879 34.8754 38.3964 34.9064C38.205 34.9375 38.0093 34.9306 37.8205 34.886C37.6317 34.8415 37.4536 34.7602 37.2964 34.6469C37.1392 34.5336 37.006 34.3904 36.9045 34.2257C36.8006 34.0618 36.7313 33.8787 36.7006 33.6873C36.67 33.4959 36.6786 33.3003 36.7261 33.1124L38.0832 27.5614L33.694 23.8505C33.473 23.6605 33.3132 23.4096 33.2347 23.1294C33.1562 22.8491 33.1625 22.552 33.2528 22.2753C33.3431 21.9986 33.5134 21.7547 33.7423 21.5742C33.9712 21.3936 34.2484 21.2845 34.5393 21.2606L40.27 20.874L42.4491 15.5859C42.5622 15.3183 42.7521 15.0898 42.9949 14.9292C43.2376 14.7686 43.5225 14.6829 43.8139 14.6829C44.1053 14.6829 44.3901 14.7686 44.6329 14.9292C44.8757 15.0898 45.0655 15.3183 45.1787 15.5859V15.5627Z" fill="#F39D00"/>
<path d="M43.8139 16.1271L46.3342 22.2502L52.9722 22.7527L47.8928 27.0435L49.467 33.4758L43.8139 29.989L38.1607 33.4758L39.7349 27.0435L34.6556 22.7527L41.2859 22.2502L43.8139 16.1271Z" fill="white"/>
<path fill-rule="evenodd" clip-rule="evenodd" d="M59.4163 36.8156L59.362 36.8929C58.7393 36.4651 57.9751 36.293 57.2284 36.4125C56.4817 36.532 55.8099 36.9339 55.3528 37.5346L55.2753 37.4727C55.4981 37.1705 55.6558 36.8256 55.7385 36.4598C55.8212 36.0939 55.8272 35.715 55.7561 35.3467C55.7069 34.9756 55.5826 34.6184 55.3906 34.2968C55.1986 33.9752 54.943 33.6958 54.6394 33.4757C55.3605 33.6512 56.0905 33.788 56.8262 33.8855C57.1989 33.8351 57.5574 33.7098 57.88 33.5171C58.2026 33.3244 58.4825 33.0683 58.7028 32.7645L58.7804 32.8186C58.3542 33.4397 58.1826 34.1999 58.3008 34.9432C58.4191 35.6865 58.8182 36.3564 59.4163 36.8156ZM65.3486 26.9043L65.2943 26.9816C64.6732 26.5511 63.9091 26.3766 63.1619 26.4948C62.4147 26.6129 61.7422 27.0145 61.2852 27.6156L61.2076 27.5614C61.6368 26.9406 61.8093 26.1788 61.6894 25.4343C61.5696 24.6899 61.1665 24.0202 60.564 23.5645L60.6183 23.4871C61.2422 23.9154 62.0076 24.0877 62.7556 23.9682C63.5036 23.8487 64.1767 23.4467 64.6352 22.8455L64.705 22.9073C64.2758 23.5281 64.1032 24.29 64.2231 25.0344C64.343 25.7789 64.7461 26.4486 65.3486 26.9043ZM65.3951 16.4209L65.2943 16.5601C64.1554 15.7774 62.7579 15.4621 61.3919 15.6795C60.026 15.8969 58.7964 16.6302 57.9584 17.7275L57.8188 17.627C58.2214 17.0761 58.5074 16.4493 58.6594 15.7848C58.8114 15.1202 58.8261 14.4318 58.7028 13.7614C58.6135 13.0807 58.3851 12.4256 58.0316 11.8365C57.6781 11.2474 57.2072 10.7369 56.6479 10.3365L56.7487 10.1973C57.8876 10.98 59.2851 11.2953 60.6511 11.0779C62.017 10.8605 63.2466 10.1272 64.0846 9.02995L64.2242 9.13045C63.8216 9.68133 63.5356 10.3081 63.3836 10.9726C63.2316 11.6372 63.2168 12.3256 63.3401 12.996C63.4304 13.6764 63.6592 14.3312 64.0126 14.9202C64.366 15.5092 64.8365 16.0199 65.3951 16.4209Z" fill="white"/>
</svg>
